<?xml version="1.0" encoding="UTF-8" standalone="no"?>
<svg
   xmlns:dc="http://purl.org/dc/elements/1.1/"
   xmlns:cc="http://creativecommons.org/ns#"
   xmlns:rdf="http://www.w3.org/1999/02/22-rdf-syntax-ns#"
   xmlns:svg="http://www.w3.org/2000/svg"
   xmlns="http://www.w3.org/2000/svg"
   xmlns:sodipodi="http://sodipodi.sourceforge.net/DTD/sodipodi-0.dtd"
   xmlns:inkscape="http://www.inkscape.org/namespaces/inkscape"
   version="1.2"
   width="215.90mm"
   height="279.40mm"
   viewBox="0 0 122.8590 158.9940"
   id="svg2"
   inkscape:version="0.48.4 r9939"
   sodipodi:docname="bg-red-3.svg">
  <metadata
     id="metadata182">
    <rdf:RDF>
      <cc:Work
         rdf:about="">
        <dc:format>image/svg+xml</dc:format>
        <dc:type
           rdf:resource="http://purl.org/dc/dcmitype/StillImage" />
      </cc:Work>
    </rdf:RDF>
  </metadata>
  <defs
     id="defs180" />
  <sodipodi:namedview
     pagecolor="#ffffff"
     bordercolor="#666666"
     borderopacity="1"
     objecttolerance="10"
     gridtolerance="10"
     guidetolerance="10"
     inkscape:pageopacity="0"
     inkscape:pageshadow="2"
     inkscape:window-width="1680"
     inkscape:window-height="1050"
     id="namedview178"
     showgrid="false"
     inkscape:zoom="2.6970053"
     inkscape:cx="235.67797"
     inkscape:cy="862.05509"
     inkscape:window-x="-2"
     inkscape:window-y="-21"
     inkscape:window-maximized="1"
     inkscape:current-layer="svg2" />
  <!-- Page: 1/1 -->
  <text
     transform="translate(5.6906, 2.8453)"
     font-family="Century Schoolbook L"
     font-size="2.2001"
     text-anchor="start"
     fill="currentColor"
     id="text4">
    <tspan
       id="tspan6" />
  </text>
  <rect
     transform="translate(40.1401, 25.6213)"
     x="0.0000"
     y="-2.0000"
     width="0.1900"
     height="4.0000"
     ry="0.0000"
     fill="currentColor"
     id="rect8" />
  <rect
     transform="translate(59.7662, 25.6213)"
     x="0.0000"
     y="-2.0000"
     width="0.1900"
     height="4.0000"
     ry="0.0000"
     fill="currentColor"
     id="rect10" />
  <rect
     transform="translate(59.2762, 25.6213)"
     x="0.0000"
     y="-2.0000"
     width="0.1900"
     height="4.0000"
     ry="0.0000"
     fill="currentColor"
     id="rect12" />
  <rect
     transform="translate(40.1401, 16.6213)"
     x="0.0000"
     y="-2.0000"
     width="0.1900"
     height="4.0000"
     ry="0.0000"
     fill="currentColor"
     id="rect14" />
  <rect
     transform="translate(49.7081, 25.6213)"
     x="0.0000"
     y="-2.0000"
     width="0.1900"
     height="4.0000"
     ry="0.0000"
     fill="currentColor"
     id="rect16" />
  <rect
     transform="translate(59.7662, 34.6213)"
     x="0.0000"
     y="-2.0000"
     width="0.1900"
     height="4.0000"
     ry="0.0000"
     fill="currentColor"
     id="rect18" />
  <rect
     transform="translate(59.2762, 34.6213)"
     x="0.0000"
     y="-2.0000"
     width="0.1900"
     height="4.0000"
     ry="0.0000"
     fill="currentColor"
     id="rect20" />
  <rect
     transform="translate(59.7662, 16.6213)"
     x="0.0000"
     y="-2.0000"
     width="0.1900"
     height="4.0000"
     ry="0.0000"
     fill="currentColor"
     id="rect22" />
  <rect
     transform="translate(59.2762, 16.6213)"
     x="0.0000"
     y="-2.0000"
     width="0.1900"
     height="4.0000"
     ry="0.0000"
     fill="currentColor"
     id="rect24" />
  <rect
     transform="translate(40.1401, 34.6213)"
     x="0.0000"
     y="-2.0000"
     width="0.1900"
     height="4.0000"
     ry="0.0000"
     fill="currentColor"
     id="rect26" />
  <rect
     transform="translate(40.1401, 7.6213)"
     x="0.0000"
     y="-2.0000"
     width="0.1900"
     height="4.0000"
     ry="0.0000"
     fill="currentColor"
     id="rect28" />
  <rect
     transform="translate(59.7662, 7.6213)"
     x="0.0000"
     y="-2.0000"
     width="0.1900"
     height="4.0000"
     ry="0.0000"
     fill="currentColor"
     id="rect30" />
  <rect
     transform="translate(59.2762, 7.6213)"
     x="0.0000"
     y="-2.0000"
     width="0.1900"
     height="4.0000"
     ry="0.0000"
     fill="currentColor"
     id="rect32" />
  <rect
     transform="translate(49.7081, 16.6213)"
     x="0.0000"
     y="-2.0000"
     width="0.1900"
     height="4.0000"
     ry="0.0000"
     fill="currentColor"
     id="rect34" />
  <rect
     transform="translate(49.7081, 34.6213)"
     x="0.0000"
     y="-2.0000"
     width="0.1900"
     height="4.0000"
     ry="0.0000"
     fill="currentColor"
     id="rect36" />
  <line
     transform="translate(14.2264, 36.6213)"
     stroke-linejoin="round"
     stroke-linecap="round"
     stroke-width="0.1000"
     stroke="currentColor"
     x1="0.0500"
     y1="-0.0000"
     x2="45.6799"
     y2="-0.0000"
     id="line38" />
  <line
     transform="translate(14.2264, 35.6213)"
     stroke-linejoin="round"
     stroke-linecap="round"
     stroke-width="0.1000"
     stroke="currentColor"
     x1="0.0500"
     y1="-0.0000"
     x2="45.6799"
     y2="-0.0000"
     id="line40" />
  <line
     transform="translate(14.2264, 34.6213)"
     stroke-linejoin="round"
     stroke-linecap="round"
     stroke-width="0.1000"
     stroke="currentColor"
     x1="0.0500"
     y1="-0.0000"
     x2="45.6799"
     y2="-0.0000"
     id="line42" />
  <line
     transform="translate(14.2264, 33.6213)"
     stroke-linejoin="round"
     stroke-linecap="round"
     stroke-width="0.1000"
     stroke="currentColor"
     x1="0.0500"
     y1="-0.0000"
     x2="45.6799"
     y2="-0.0000"
     id="line44" />
  <line
     transform="translate(14.2264, 32.6213)"
     stroke-linejoin="round"
     stroke-linecap="round"
     stroke-width="0.1000"
     stroke="currentColor"
     x1="0.0500"
     y1="-0.0000"
     x2="45.6799"
     y2="-0.0000"
     id="line46" />
  <line
     transform="translate(14.2264, 27.6213)"
     stroke-linejoin="round"
     stroke-linecap="round"
     stroke-width="0.1000"
     stroke="currentColor"
     x1="0.0500"
     y1="-0.0000"
     x2="45.6799"
     y2="-0.0000"
     id="line48" />
  <line
     transform="translate(14.2264, 26.6213)"
     stroke-linejoin="round"
     stroke-linecap="round"
     stroke-width="0.1000"
     stroke="currentColor"
     x1="0.0500"
     y1="-0.0000"
     x2="45.6799"
     y2="-0.0000"
     id="line50" />
  <line
     transform="translate(14.2264, 25.6213)"
     stroke-linejoin="round"
     stroke-linecap="round"
     stroke-width="0.1000"
     stroke="currentColor"
     x1="0.0500"
     y1="-0.0000"
     x2="45.6799"
     y2="-0.0000"
     id="line52" />
  <line
     transform="translate(14.2264, 24.6213)"
     stroke-linejoin="round"
     stroke-linecap="round"
     stroke-width="0.1000"
     stroke="currentColor"
     x1="0.0500"
     y1="-0.0000"
     x2="45.6799"
     y2="-0.0000"
     id="line54" />
  <line
     transform="translate(14.2264, 23.6213)"
     stroke-linejoin="round"
     stroke-linecap="round"
     stroke-width="0.1000"
     stroke="currentColor"
     x1="0.0500"
     y1="-0.0000"
     x2="45.6799"
     y2="-0.0000"
     id="line56" />
  <rect
     transform="translate(49.7081, 7.6213)"
     x="0.0000"
     y="-2.0000"
     width="0.1900"
     height="4.0000"
     ry="0.0000"
     fill="currentColor"
     id="rect58" />
  <line
     transform="translate(14.2264, 18.6213)"
     stroke-linejoin="round"
     stroke-linecap="round"
     stroke-width="0.1000"
     stroke="currentColor"
     x1="0.0500"
     y1="-0.0000"
     x2="45.6799"
     y2="-0.0000"
     id="line60" />
  <line
     transform="translate(14.2264, 17.6213)"
     stroke-linejoin="round"
     stroke-linecap="round"
     stroke-width="0.1000"
     stroke="currentColor"
     x1="0.0500"
     y1="-0.0000"
     x2="45.6799"
     y2="-0.0000"
     id="line62" />
  <line
     transform="translate(14.2264, 16.6213)"
     stroke-linejoin="round"
     stroke-linecap="round"
     stroke-width="0.1000"
     stroke="currentColor"
     x1="0.0500"
     y1="-0.0000"
     x2="45.6799"
     y2="-0.0000"
     id="line64" />
  <line
     transform="translate(14.2264, 15.6213)"
     stroke-linejoin="round"
     stroke-linecap="round"
     stroke-width="0.1000"
     stroke="currentColor"
     x1="0.0500"
     y1="-0.0000"
     x2="45.6799"
     y2="-0.0000"
     id="line66" />
  <line
     transform="translate(14.2264, 14.6213)"
     stroke-linejoin="round"
     stroke-linecap="round"
     stroke-width="0.1000"
     stroke="currentColor"
     x1="0.0500"
     y1="-0.0000"
     x2="45.6799"
     y2="-0.0000"
     id="line68" />
  <line
     transform="translate(14.2264, 9.6213)"
     stroke-linejoin="round"
     stroke-linecap="round"
     stroke-width="0.1000"
     stroke="currentColor"
     x1="0.0500"
     y1="-0.0000"
     x2="45.6799"
     y2="-0.0000"
     id="line70" />
  <line
     transform="translate(14.2264, 8.6213)"
     stroke-linejoin="round"
     stroke-linecap="round"
     stroke-width="0.1000"
     stroke="currentColor"
     x1="0.0500"
     y1="-0.0000"
     x2="45.6799"
     y2="-0.0000"
     id="line72" />
  <line
     transform="translate(14.2264, 7.6213)"
     stroke-linejoin="round"
     stroke-linecap="round"
     stroke-width="0.1000"
     stroke="currentColor"
     x1="0.0500"
     y1="-0.0000"
     x2="45.6799"
     y2="-0.0000"
     id="line74" />
  <line
     transform="translate(14.2264, 6.6213)"
     stroke-linejoin="round"
     stroke-linecap="round"
     stroke-width="0.1000"
     stroke="currentColor"
     x1="0.0500"
     y1="-0.0000"
     x2="45.6799"
     y2="-0.0000"
     id="line76" />
  <line
     transform="translate(14.2264, 5.6213)"
     stroke-linejoin="round"
     stroke-linecap="round"
     stroke-width="0.1000"
     stroke="currentColor"
     x1="0.0500"
     y1="-0.0000"
     x2="45.6799"
     y2="-0.0000"
     id="line78" />
  <path
     transform="translate(51.7981, 7.6213) scale(0.0040, -0.0040)"
     d="M248 138c95 0 230 -36 246 -123v140c0 14 11 25 25 25s25 -11 25 -25v-310c0 -14 -11 -25 -25 -25s-25 11 -25 25v140c-16 -87 -151 -123 -246 -123s-231 36 -247 123v-140c0 -14 -11 -25 -25 -25s-25 11 -25 25v310c0 14 11 25 25 25s25 -11 25 -25v-140 c16 87 152 123 247 123zM215 112c-50 0 -69 -43 -69 -88c0 -77 57 -136 134 -136c50 0 69 43 69 88c0 77 -57 136 -134 136z"
     fill="currentColor"
     id="path80" />
  <path
     transform="translate(51.7981, 17.6213) scale(0.0040, -0.0040)"
     d="M248 138c95 0 230 -36 246 -123v140c0 14 11 25 25 25s25 -11 25 -25v-310c0 -14 -11 -25 -25 -25s-25 11 -25 25v140c-16 -87 -151 -123 -246 -123s-231 36 -247 123v-140c0 -14 -11 -25 -25 -25s-25 11 -25 25v310c0 14 11 25 25 25s25 -11 25 -25v-140 c16 87 152 123 247 123zM215 112c-50 0 -69 -43 -69 -88c0 -77 57 -136 134 -136c50 0 69 43 69 88c0 77 -57 136 -134 136z"
     fill="currentColor"
     id="path82" />
  <path
     transform="translate(51.7981, 26.6213) scale(0.0040, -0.0040)"
     d="M248 138c95 0 230 -36 246 -123v140c0 14 11 25 25 25s25 -11 25 -25v-310c0 -14 -11 -25 -25 -25s-25 11 -25 25v140c-16 -87 -151 -123 -246 -123s-231 36 -247 123v-140c0 -14 -11 -25 -25 -25s-25 11 -25 25v310c0 14 11 25 25 25s25 -11 25 -25v-140 c16 87 152 123 247 123zM215 112c-50 0 -69 -43 -69 -88c0 -77 57 -136 134 -136c50 0 69 43 69 88c0 77 -57 136 -134 136z"
     fill="currentColor"
     id="path84" />
  <path
     transform="translate(51.7981, 33.1213) scale(0.0040, -0.0040)"
     d="M248 138c95 0 230 -36 246 -123v140c0 14 11 25 25 25s25 -11 25 -25v-310c0 -14 -11 -25 -25 -25s-25 11 -25 25v140c-16 -87 -151 -123 -246 -123s-231 36 -247 123v-140c0 -14 -11 -25 -25 -25s-25 11 -25 25v310c0 14 11 25 25 25s25 -11 25 -25v-140 c16 87 152 123 247 123zM215 112c-50 0 -69 -43 -69 -88c0 -77 57 -136 134 -136c50 0 69 43 69 88c0 77 -57 136 -134 136z"
     fill="currentColor"
     id="path86" />
  <path
     transform="translate(42.2301, 7.6213) scale(0.0040, -0.0040)"
     d="M248 138c95 0 230 -36 246 -123v140c0 14 11 25 25 25s25 -11 25 -25v-310c0 -14 -11 -25 -25 -25s-25 11 -25 25v140c-16 -87 -151 -123 -246 -123s-231 36 -247 123v-140c0 -14 -11 -25 -25 -25s-25 11 -25 25v310c0 14 11 25 25 25s25 -11 25 -25v-140 c16 87 152 123 247 123zM215 112c-50 0 -69 -43 -69 -88c0 -77 57 -136 134 -136c50 0 69 43 69 88c0 77 -57 136 -134 136z"
     fill="currentColor"
     id="path88" />
  <path
     transform="translate(42.2301, 17.6213) scale(0.0040, -0.0040)"
     d="M248 138c95 0 230 -36 246 -123v140c0 14 11 25 25 25s25 -11 25 -25v-310c0 -14 -11 -25 -25 -25s-25 11 -25 25v140c-16 -87 -151 -123 -246 -123s-231 36 -247 123v-140c0 -14 -11 -25 -25 -25s-25 11 -25 25v310c0 14 11 25 25 25s25 -11 25 -25v-140 c16 87 152 123 247 123zM215 112c-50 0 -69 -43 -69 -88c0 -77 57 -136 134 -136c50 0 69 43 69 88c0 77 -57 136 -134 136z"
     fill="currentColor"
     id="path90" />
  <path
     transform="translate(42.2301, 26.6213) scale(0.0040, -0.0040)"
     d="M248 138c95 0 230 -36 246 -123v140c0 14 11 25 25 25s25 -11 25 -25v-310c0 -14 -11 -25 -25 -25s-25 11 -25 25v140c-16 -87 -151 -123 -246 -123s-231 36 -247 123v-140c0 -14 -11 -25 -25 -25s-25 11 -25 25v310c0 14 11 25 25 25s25 -11 25 -25v-140 c16 87 152 123 247 123zM215 112c-50 0 -69 -43 -69 -88c0 -77 57 -136 134 -136c50 0 69 43 69 88c0 77 -57 136 -134 136z"
     fill="currentColor"
     id="path92" />
  <path
     transform="translate(42.2301, 33.1213) scale(0.0040, -0.0040)"
     d="M248 138c95 0 230 -36 246 -123v140c0 14 11 25 25 25s25 -11 25 -25v-310c0 -14 -11 -25 -25 -25s-25 11 -25 25v140c-16 -87 -151 -123 -246 -123s-231 36 -247 123v-140c0 -14 -11 -25 -25 -25s-25 11 -25 25v310c0 14 11 25 25 25s25 -11 25 -25v-140 c16 87 152 123 247 123zM215 112c-50 0 -69 -43 -69 -88c0 -77 57 -136 134 -136c50 0 69 43 69 88c0 77 -57 136 -134 136z"
     fill="currentColor"
     id="path94" />
  <path
     transform="translate(42.2301, 34.6213)"
     stroke-width="0.0800"
     stroke-linejoin="round"
     stroke-linecap="round"
     stroke="currentColor"
     fill="currentColor"
     d="M2.38004400000001 -2.0C3.42531854394527 -2.88523028897234 8.12279645518935 -2.88523028897234 9.16807099913461 -2.0C8.12279645518935 -2.76523028897234 3.42531854394527 -2.76523028897234 2.38004400000001 -2.0z"
     id="path96" />
  <path
     transform="translate(42.2301, 25.6213)"
     stroke-width="0.0800"
     stroke-linejoin="round"
     stroke-linecap="round"
     stroke="currentColor"
     fill="currentColor"
     d="M1.19001300000001 1.75C2.38314625159047 2.67912460622143 9.16496874754415 2.67912460622143 10.3581019991346 1.75C9.16496874754415 2.55912460622143 2.38314625159047 2.55912460622143 1.19001300000001 1.75z"
     id="path98" />
  <path
     transform="translate(42.2301, 16.6213)"
     stroke-width="0.0800"
     stroke-linejoin="round"
     stroke-linecap="round"
     stroke="currentColor"
     fill="currentColor"
     d="M1.19001300000001 1.75C2.38314625159047 2.67912460622143 9.16496874754415 2.67912460622143 10.3581019991346 1.75C9.16496874754415 2.55912460622143 2.38314625159047 2.55912460622143 1.19001300000001 1.75z"
     id="path100" />
  <path
     transform="translate(42.2301, 7.6213)"
     stroke-width="0.0800"
     stroke-linejoin="round"
     stroke-linecap="round"
     stroke="currentColor"
     fill="currentColor"
     d="M1.19001300000001 -0.75C2.38314625159047 -1.67912460622143 9.16496874754415 -1.67912460622143 10.3581019991346 -0.75C9.16496874754415 -1.55912460622143 2.38314625159047 -1.55912460622143 1.19001300000001 -0.75z"
     id="path102" />
  <rect
     transform="translate(23.9457, 16.6213)"
     x="-0.0650"
     y="-3.0000"
     width="0.1300"
     height="3.3122"
     ry="0.0400"
     fill="currentColor"
     id="rect104" />
  <rect
     transform="translate(22.7595, 25.6213)"
     x="-0.0650"
     y="-0.3122"
     width="0.1300"
     height="3.3122"
     ry="0.0400"
     fill="currentColor"
     id="rect106" />
  <path
     transform="translate(25.7088, 17.6213) scale(0.0040, -0.0040)"
     d="M220 138c56 0 109 -29 109 -91c0 -72 -56 -121 -103 -149c-36 -21 -76 -36 -117 -36c-56 0 -109 29 -109 91c0 72 56 121 103 149c36 21 76 36 117 36z"
     fill="currentColor"
     id="path108" />
  <path
     transform="translate(15.0264, 17.6213) scale(0.0040, -0.0040)"
     d="M376 262c4 0 9 1 13 1c155 0 256 -128 256 -261c0 -76 -33 -154 -107 -210c-22 -17 -47 -28 -73 -36c3 -35 5 -70 5 -105c0 -19 -1 -39 -2 -58c-7 -120 -90 -228 -208 -228c-108 0 -195 88 -195 197c0 58 53 103 112 103c54 0 95 -47 95 -103c0 -52 -43 -95 -95 -95 c-11 0 -21 2 -31 6c26 -39 68 -65 117 -65c96 0 157 92 163 191c1 18 2 37 2 55c0 31 -1 61 -4 92c-29 -5 -58 -8 -89 -8c-188 0 -333 172 -333 374c0 177 131 306 248 441c-19 62 -37 125 -45 190c-6 52 -7 104 -7 156c0 115 55 224 149 292c3 2 7 3 10 3c4 0 7 0 10 -3 c71 -84 133 -245 133 -358c0 -143 -86 -255 -180 -364c21 -68 39 -138 56 -207zM461 -203c68 24 113 95 113 164c0 90 -66 179 -173 190c24 -116 46 -231 60 -354zM74 28c0 -135 129 -247 264 -247c28 0 55 2 82 6c-14 127 -37 245 -63 364c-79 -8 -124 -61 -124 -119 c0 -44 25 -91 81 -123c5 -5 7 -10 7 -15c0 -11 -10 -22 -22 -22c-3 0 -6 1 -9 2c-80 43 -117 115 -117 185c0 88 58 174 160 197c-14 58 -29 117 -46 175c-107 -121 -213 -243 -213 -403zM408 1045c-99 -48 -162 -149 -162 -259c0 -74 18 -133 36 -194 c80 97 146 198 146 324c0 55 -4 79 -20 129z"
     fill="currentColor"
     id="path110" />
  <rect
     transform="translate(14.1664, 21.1213)"
     x="0.0000"
     y="-15.5500"
     width="0.1600"
     height="31.1000"
     ry="0.0500"
     fill="currentColor"
     id="rect112" />
  <path
     transform="translate(22.6945, 6.1213) scale(0.0040, -0.0040)"
     d="M315 65c0 24 -21 41 -42 41c-4 0 -8 0 -12 -1c-31 -9 -77 -40 -114 -64s-84 -53 -104 -78c-7 -8 -11 -18 -11 -28c0 -24 21 -41 42 -41c4 0 8 0 12 1c31 9 78 40 115 64s84 53 104 78c7 8 10 18 10 28zM264 137c47 0 83 -21 83 -72c0 -19 -4 -37 -10 -56 c-12 -38 -32 -74 -65 -96c-54 -36 -113 -51 -188 -51c-47 0 -84 22 -84 73c0 19 5 37 11 56c12 38 31 74 64 96c54 36 114 50 189 50z"
     fill="currentColor"
     id="path114" />
  <path
     transform="translate(15.0264, 8.6213) scale(0.0040, -0.0040)"
     d="M376 262c4 0 9 1 13 1c155 0 256 -128 256 -261c0 -76 -33 -154 -107 -210c-22 -17 -47 -28 -73 -36c3 -35 5 -70 5 -105c0 -19 -1 -39 -2 -58c-7 -120 -90 -228 -208 -228c-108 0 -195 88 -195 197c0 58 53 103 112 103c54 0 95 -47 95 -103c0 -52 -43 -95 -95 -95 c-11 0 -21 2 -31 6c26 -39 68 -65 117 -65c96 0 157 92 163 191c1 18 2 37 2 55c0 31 -1 61 -4 92c-29 -5 -58 -8 -89 -8c-188 0 -333 172 -333 374c0 177 131 306 248 441c-19 62 -37 125 -45 190c-6 52 -7 104 -7 156c0 115 55 224 149 292c3 2 7 3 10 3c4 0 7 0 10 -3 c71 -84 133 -245 133 -358c0 -143 -86 -255 -180 -364c21 -68 39 -138 56 -207zM461 -203c68 24 113 95 113 164c0 90 -66 179 -173 190c24 -116 46 -231 60 -354zM74 28c0 -135 129 -247 264 -247c28 0 55 2 82 6c-14 127 -37 245 -63 364c-79 -8 -124 -61 -124 -119 c0 -44 25 -91 81 -123c5 -5 7 -10 7 -15c0 -11 -10 -22 -22 -22c-3 0 -6 1 -9 2c-80 43 -117 115 -117 185c0 88 58 174 160 197c-14 58 -29 117 -46 175c-107 -121 -213 -243 -213 -403zM408 1045c-99 -48 -162 -149 -162 -259c0 -74 18 -133 36 -194 c80 97 146 198 146 324c0 55 -4 79 -20 129z"
     fill="currentColor"
     id="path116" />
  <path
     transform="translate(22.6945, 17.1213) scale(0.0040, -0.0040)"
     d="M220 138c56 0 109 -29 109 -91c0 -72 -56 -121 -103 -149c-36 -21 -76 -36 -117 -36c-56 0 -109 29 -109 91c0 72 56 121 103 149c36 21 76 36 117 36z"
     fill="currentColor"
     id="path122" />
  <path
     transform="translate(22.6945, 25.1213) scale(0.0040, -0.0040)"
     d="M220 138c56 0 109 -29 109 -91c0 -72 -56 -121 -103 -149c-36 -21 -76 -36 -117 -36c-56 0 -109 29 -109 91c0 72 56 121 103 149c36 21 76 36 117 36z"
     fill="currentColor"
     id="path128" />
  <path
     transform="translate(15.0264, 26.6213) scale(0.0040, -0.0040)"
     d="M376 262c4 0 9 1 13 1c155 0 256 -128 256 -261c0 -76 -33 -154 -107 -210c-22 -17 -47 -28 -73 -36c3 -35 5 -70 5 -105c0 -19 -1 -39 -2 -58c-7 -120 -90 -228 -208 -228c-108 0 -195 88 -195 197c0 58 53 103 112 103c54 0 95 -47 95 -103c0 -52 -43 -95 -95 -95 c-11 0 -21 2 -31 6c26 -39 68 -65 117 -65c96 0 157 92 163 191c1 18 2 37 2 55c0 31 -1 61 -4 92c-29 -5 -58 -8 -89 -8c-188 0 -333 172 -333 374c0 177 131 306 248 441c-19 62 -37 125 -45 190c-6 52 -7 104 -7 156c0 115 55 224 149 292c3 2 7 3 10 3c4 0 7 0 10 -3 c71 -84 133 -245 133 -358c0 -143 -86 -255 -180 -364c21 -68 39 -138 56 -207zM461 -203c68 24 113 95 113 164c0 90 -66 179 -173 190c24 -116 46 -231 60 -354zM74 28c0 -135 129 -247 264 -247c28 0 55 2 82 6c-14 127 -37 245 -63 364c-79 -8 -124 -61 -124 -119 c0 -44 25 -91 81 -123c5 -5 7 -10 7 -15c0 -11 -10 -22 -22 -22c-3 0 -6 1 -9 2c-80 43 -117 115 -117 185c0 88 58 174 160 197c-14 58 -29 117 -46 175c-107 -121 -213 -243 -213 -403zM408 1045c-99 -48 -162 -149 -162 -259c0 -74 18 -133 36 -194 c80 97 146 198 146 324c0 55 -4 79 -20 129z"
     fill="currentColor"
     id="path130" />
  <text
     transform="translate(15.9162, 30.1514)"
     font-family="Century Schoolbook L"
     font-style="italic"
     font-size="1.3860"
     text-anchor="start"
     fill="currentColor"
     id="text132">
    <tspan
       id="tspan134">
8</tspan>
  </text>
  <path
     transform="translate(22.6945, 34.1213) scale(0.0040, -0.0040)"
     d="M215 112c-50 0 -69 -43 -69 -88c0 -77 57 -136 134 -136c50 0 69 43 69 88c0 77 -57 136 -134 136zM495 0c0 -43 -35 -76 -73 -97c-53 -30 -113 -41 -174 -41s-122 11 -175 41c-38 21 -73 54 -73 97s35 76 73 97c53 30 114 41 175 41s121 -11 174 -41 c38 -21 73 -54 73 -97z"
     fill="currentColor"
     id="path140" />
  <path
     transform="translate(15.0264, 33.6213) scale(0.0040, -0.0040)"
     d="M557 -125c0 28 23 51 51 51s51 -23 51 -51s-23 -51 -51 -51s-51 23 -51 51zM557 125c0 28 23 51 51 51s51 -23 51 -51s-23 -51 -51 -51s-51 23 -51 51zM232 263c172 0 293 -88 293 -251c0 -263 -263 -414 -516 -521c-3 -3 -6 -4 -9 -4c-7 0 -13 6 -13 13c0 3 1 6 4 9 c202 118 412 265 412 493c0 120 -63 235 -171 235c-74 0 -129 -54 -154 -126c11 5 22 8 34 8c55 0 100 -45 100 -100c0 -58 -44 -106 -100 -106c-60 0 -112 47 -112 106c0 133 102 244 232 244z"
     fill="currentColor"
     id="path142" />
  <rect
     transform="translate(22.7595, 7.6213)"
     x="-0.0650"
     y="-1.2386"
     width="0.1300"
     height="3.2386"
     ry="0.0400"
     fill="currentColor"
     id="rect148" />
  <rect
     transform="translate(30.0086, 25.6213)"
     x="-0.0650"
     y="-2.5000"
     width="0.1300"
     height="3.2386"
     ry="0.0400"
     fill="currentColor"
     id="rect150" />
  <path
     transform="translate(32.9717, 6.6213) scale(0.0040, -0.0040)"
     d="M215 112c-50 0 -69 -43 -69 -88c0 -77 57 -136 134 -136c50 0 69 43 69 88c0 77 -57 136 -134 136zM495 0c0 -43 -35 -76 -73 -97c-53 -30 -113 -41 -174 -41s-122 11 -175 41c-38 21 -73 54 -73 97s35 76 73 97c53 30 114 41 175 41s121 -11 174 -41 c38 -21 73 -54 73 -97z"
     fill="currentColor"
     id="path152" />
  <path
     transform="translate(32.9717, 26.1213) scale(0.0040, -0.0040)"
     d="M215 112c-50 0 -69 -43 -69 -88c0 -77 57 -136 134 -136c50 0 69 43 69 88c0 77 -57 136 -134 136zM495 0c0 -43 -35 -76 -73 -97c-53 -30 -113 -41 -174 -41s-122 11 -175 41c-38 21 -73 54 -73 97s35 76 73 97c53 30 114 41 175 41s121 -11 174 -41 c38 -21 73 -54 73 -97z"
     fill="currentColor"
     id="path154" />
  <path
     transform="translate(32.9717, 34.6213) scale(0.0040, -0.0040)"
     d="M215 112c-50 0 -69 -43 -69 -88c0 -77 57 -136 134 -136c50 0 69 43 69 88c0 77 -57 136 -134 136zM495 0c0 -43 -35 -76 -73 -97c-53 -30 -113 -41 -174 -41s-122 11 -175 41c-38 21 -73 54 -73 97s35 76 73 97c53 30 114 41 175 41s121 -11 174 -41 c38 -21 73 -54 73 -97z"
     fill="currentColor"
     id="path156" />
  <rect
     transform="translate(36.9457, 16.6213)"
     x="-0.0650"
     y="-2.0000"
     width="0.1300"
     height="3.2386"
     ry="0.0400"
     fill="currentColor"
     id="rect158" />
  <path
     transform="translate(35.6207, 18.1213) scale(0.0040, -0.0040)"
     d="M315 65c0 24 -21 41 -42 41c-4 0 -8 0 -12 -1c-31 -9 -77 -40 -114 -64s-84 -53 -104 -78c-7 -8 -11 -18 -11 -28c0 -24 21 -41 42 -41c4 0 8 0 12 1c31 9 78 40 115 64s84 53 104 78c7 8 10 18 10 28zM264 137c47 0 83 -21 83 -72c0 -19 -4 -37 -10 -56 c-12 -38 -32 -74 -65 -96c-54 -36 -113 -51 -188 -51c-47 0 -84 22 -84 73c0 19 5 37 11 56c12 38 31 74 64 96c54 36 114 50 189 50z"
     fill="currentColor"
     id="path160" />
  <rect
     transform="translate(26.9599, 16.6213)"
     x="-0.0650"
     y="-2.5000"
     width="0.1300"
     height="3.3122"
     ry="0.0400"
     fill="currentColor"
     id="rect162" />
  <path
     transform="translate(25.7088, 25.6213) scale(0.0040, -0.0040)"
     d="M220 138c56 0 109 -29 109 -91c0 -72 -56 -121 -103 -149c-36 -21 -76 -36 -117 -36c-56 0 -109 29 -109 91c0 72 56 121 103 149c36 21 76 36 117 36z"
     fill="currentColor"
     id="path164" />
  <rect
     transform="translate(25.7738, 25.6213)"
     x="-0.0650"
     y="0.1878"
     width="0.1300"
     height="3.1455"
     ry="0.0400"
     fill="currentColor"
     id="rect166" />
  <path
     transform="translate(34.1707, 18.1213) scale(0.0040, -0.0040)"
     d="M216 -312c0 -10 -8 -19 -18 -19s-19 9 -19 19v145l-83 -31v-158c0 -10 -9 -19 -19 -19s-18 9 -18 19v145l-32 -12c-2 -1 -5 -1 -7 -1c-11 0 -20 9 -20 20v60c0 8 5 16 13 19l46 16v160l-32 -11c-2 -1 -5 -1 -7 -1c-11 0 -20 9 -20 20v60c0 8 5 15 13 18l46 17v158 c0 10 8 19 18 19s19 -9 19 -19v-145l83 31v158c0 10 9 19 19 19s18 -9 18 -19v-145l32 12c2 1 5 1 7 1c11 0 20 -9 20 -20v-60c0 -8 -5 -16 -13 -19l-46 -16v-160l32 11c2 1 5 1 7 1c11 0 20 -9 20 -20v-60c0 -8 -5 -15 -13 -18l-46 -17v-158zM96 65v-160l83 30v160z"
     fill="currentColor"
     id="path168" />
  <path
     transform="translate(28.6836, 7.1213) scale(0.0040, -0.0040)"
     d="M315 65c0 24 -21 41 -42 41c-4 0 -8 0 -12 -1c-31 -9 -77 -40 -114 -64s-84 -53 -104 -78c-7 -8 -11 -18 -11 -28c0 -24 21 -41 42 -41c4 0 8 0 12 1c31 9 78 40 115 64s84 53 104 78c7 8 10 18 10 28zM264 137c47 0 83 -21 83 -72c0 -19 -4 -37 -10 -56 c-12 -38 -32 -74 -65 -96c-54 -36 -113 -51 -188 -51c-47 0 -84 22 -84 73c0 19 5 37 11 56c12 38 31 74 64 96c54 36 114 50 189 50z"
     fill="currentColor"
     id="path170" />
  <path
     transform="translate(28.6836, 17.6213) scale(0.0040, -0.0040)"
     d="M215 112c-50 0 -69 -43 -69 -88c0 -77 57 -136 134 -136c50 0 69 43 69 88c0 77 -57 136 -134 136zM495 0c0 -43 -35 -76 -73 -97c-53 -30 -113 -41 -174 -41s-122 11 -175 41c-38 21 -73 54 -73 97s35 76 73 97c53 30 114 41 175 41s121 -11 174 -41 c38 -21 73 -54 73 -97z"
     fill="currentColor"
     id="path172" />
  <path
     transform="translate(28.6836, 26.6213) scale(0.0040, -0.0040)"
     d="M315 65c0 24 -21 41 -42 41c-4 0 -8 0 -12 -1c-31 -9 -77 -40 -114 -64s-84 -53 -104 -78c-7 -8 -11 -18 -11 -28c0 -24 21 -41 42 -41c4 0 8 0 12 1c31 9 78 40 115 64s84 53 104 78c7 8 10 18 10 28zM264 137c47 0 83 -21 83 -72c0 -19 -4 -37 -10 -56 c-12 -38 -32 -74 -65 -96c-54 -36 -113 -51 -188 -51c-47 0 -84 22 -84 73c0 19 5 37 11 56c12 38 31 74 64 96c54 36 114 50 189 50z"
     fill="currentColor"
     id="path174" />
  <rect
     transform="translate(28.7486, 7.6213)"
     x="-0.0650"
     y="-0.2386"
     width="0.1300"
     height="3.2386"
     ry="0.0400"
     fill="currentColor"
     id="rect176" />
</svg>
